<svg xmlns="http://www.w3.org/2000/svg" viewBox="0 0 160 100" role="img" aria-label="GNS3 cloud or compute image">
  <defs>
    <linearGradient id="bg" x1="0" x2="1" y1="0" y2="1">
      <stop offset="0" stop-color="#94a3b8"/>
      <stop offset="1" stop-color="#475569"/>
    </linearGradient>
  </defs>
  <rect width="160" height="100" rx="14" fill="url(#bg)"/>
  <path d="M49 63h69c13 0 23-9 23-21s-10-22-23-22c-5 0-10 1-14 4-7-9-18-14-31-14-19 0-35 13-38 30-12 2-21 11-21 22 0 12 10 21 24 21z" fill="#e2e8f0"/>
  <path d="M58 49h44M75 37l-15 12 15 12M88 37l15 12-15 12" stroke="#475569" stroke-width="5" stroke-linecap="round" stroke-linejoin="round" fill="none"/>
  <rect x="36" y="78" width="88" height="14" rx="7" fill="#334155"/>
  <text x="80" y="89" font-family="Segoe UI,Arial,sans-serif" font-size="11" font-weight="700" fill="#ffffff" text-anchor="middle">GNS3 CLOUD</text>
</svg>
