<svg xmlns="http://www.w3.org/2000/svg" viewBox="0 0 160 100" role="img" aria-label="Simulated Internet cloud image">
  <defs>
    <linearGradient id="bg" x1="0" x2="1" y1="0" y2="1">
      <stop offset="0" stop-color="#c084fc"/>
      <stop offset="1" stop-color="#7e22ce"/>
    </linearGradient>
  </defs>
  <rect width="160" height="100" rx="14" fill="url(#bg)"/>
  <path d="M48 64h70c13 0 23-9 23-21s-10-22-23-22c-5 0-10 1-14 4-7-9-18-14-31-14-19 0-34 13-38 30-12 2-20 11-20 22 0 12 10 21 23 21z" fill="#f3e8ff"/>
  <path d="M54 49h52M64 40l-10 9 10 9M96 40l10 9-10 9" stroke="#7e22ce" stroke-width="5" stroke-linecap="round" stroke-linejoin="round" fill="none"/>
  <rect x="32" y="78" width="96" height="14" rx="7" fill="#6b21a8"/>
  <text x="80" y="89" font-family="Segoe UI,Arial,sans-serif" font-size="11" font-weight="700" fill="#ffffff" text-anchor="middle">SIM INTERNET</text>
</svg>
