<svg xmlns="http://www.w3.org/2000/svg" aria-label="Simulated Internet cloud image" role="img" viewBox="0 0 160 100"><defs><linearGradient id="bg" x1="0" x2="1" y1="0" y2="1"><stop offset="0" stop-color="#c084fc"/><stop offset="1" stop-color="#7e22ce"/></linearGradient></defs><rect width="160" height="100" fill="url(#bg)" rx="14"/><path fill="#f3e8ff" d="M48 64h70c13 0 23-9 23-21s-10-22-23-22c-5 0-10 1-14 4-7-9-18-14-31-14-19 0-34 13-38 30-12 2-20 11-20 22 0 12 10 21 23 21z"/><path fill="none" stroke="#7e22ce" stroke-linecap="round" stroke-linejoin="round" stroke-width="5" d="M54 49h52M64 40l-10 9 10 9M96 40l10 9-10 9"/><rect width="96" height="14" x="32" y="78" fill="#6b21a8" rx="7"/><text x="80" y="89" fill="#fff" font-family="Segoe UI,Arial,sans-serif" font-size="11" font-weight="700" text-anchor="middle">SIM INTERNET</text></svg>