<svg xmlns="http://www.w3.org/2000/svg" font-family="Segoe UI, Helvetica, Arial, sans-serif" viewBox="0 0 1480 1020"><rect width="1480" height="1020" x="0" y="0" fill="#fff"/><text x="40" y="34" fill="#0f172a" font-size="22" font-weight="700">Aurora Communications — Region A (v2.5): ADL-GEL-MEL-PE1-MEL-P Geographic Layout</text><text x="40" y="56" fill="#475569" font-size="13">IS-IS L2 + MPLS LDP · iBGP VPNv4 full mesh · MEL-P right-side handoff to PC1/SYD-PE1 · doc ASNs/prefixes (RFC 5398/5737/3849)</text><rect width="1080" height="216" x="40" y="72" fill="#f5f3ff" stroke="#7e22ce" rx="10"/><text x="54" y="92" fill="#581c87" font-size="13" font-weight="700">🌐 Internet Edge — simulated (documentation ASNs / prefixes; never advertised to the real Internet)</text><rect width="1080" height="206" x="40" y="304" fill="#eff6ff" stroke="#1d4ed8" rx="10"/><text x="54" y="324" fill="#1e3a8a" font-size="13" font-weight="700">Aurora AS 64496 — Cisco P/PE core (IS-IS L2 + LDP transport, iBGP VPNv4 full mesh, MPLS L3VPN)</text><rect width="1080" height="170" x="40" y="526" fill="#fff7ed" stroke="#f97316" rx="10"/><text x="54" y="546" fill="#9a3412" font-size="13" font-weight="700">Customer Edge</text><rect width="1080" height="150" x="40" y="712" fill="#fefce8" stroke="#ca8a04" rx="10"/><text x="54" y="732" fill="#854d0e" font-size="13" font-weight="700">Tenant workloads (Region B/PC1 Docker offload)</text><rect width="300" height="790" x="1140" y="72" fill="#f8fafc" stroke="#64748b" rx="10"/><text x="1154" y="92" fill="#334155" font-size="13" font-weight="700">PC1 / Management / RPKI</text><g fill="none" stroke="#64748b" stroke-width="2"><line x1="170" x2="605" y1="232" y2="350"/><line x1="950" x2="175" y1="232" y2="350"/><line x1="520" x2="605" y1="252" y2="350"/><line x1="250" x2="315" y1="404" y2="430"/><line x1="465" x2="530" y1="430" y2="404"/><line x1="680" x2="760" y1="404" y2="404"/><line x1="880" x2="920" y1="404" y2="404" stroke-dasharray="6 4"/></g><g fill="none" stroke="#1d4ed8" stroke-dasharray="5 4" stroke-width="1.6"><path d="M 175 350 Q 390 300 605 350"/><line x1="175" x2="390" y1="392" y2="392"/><line x1="390" x2="605" y1="392" y2="392"/></g><g fill="none" stroke="#64748b" stroke-width="2"><line x1="605" x2="605" y1="448" y2="566"/><line x1="390" x2="390" y1="470" y2="566"/><line x1="175" x2="175" y1="448" y2="566"/></g><g fill="none" stroke="#94a3b8" stroke-dasharray="3 3" stroke-width="1.4"><line x1="605" x2="605" y1="654" y2="752"/><line x1="390" x2="390" y1="654" y2="752"/></g><g><image width="150" height="82" x="100" y="150" href="assets/topology-photos/generated/transit-a-photo.jpg" preserveAspectRatio="xMidYMid slice"/><rect width="150" height="82" x="100" y="150" fill="none" stroke="#6a1b9a" stroke-width="2" rx="8"/></g><g><image width="150" height="82" x="875" y="150" href="assets/topology-photos/generated/transit-b-photo.jpg" preserveAspectRatio="xMidYMid slice"/><rect width="150" height="82" x="875" y="150" fill="none" stroke="#6a1b9a" stroke-width="2" rx="8"/></g><g><rect width="180" height="46" x="470" y="206" fill="#0f766e" rx="8"/><image width="34" height="24" x="480" y="214" href="assets/topology-icons/ixp-fabric.svg" preserveAspectRatio="xMidYMid meet"/><text x="560" y="226" fill="#fff" font-size="12" font-weight="700" text-anchor="middle">ixp-fabric</text><text x="560" y="242" fill="#ccfbf1" font-size="10" text-anchor="middle">Melbourne IXP · L2 LAN</text></g><g><rect width="150" height="66" x="330" y="112" fill="#0d9488" rx="8"/><image width="32" height="22" x="338" y="120" href="assets/topology-icons/frr-router.svg" preserveAspectRatio="xMidYMid meet"/><text x="405" y="132" fill="#fff" font-size="11" font-weight="700" text-anchor="middle">ixp-rs1 (FRR)</text><text x="405" y="148" fill="#ccfbf1" font-size="10" text-anchor="middle">route server</text><text x="405" y="163" fill="#ccfbf1" font-size="10" text-anchor="middle">B/PC1 Docker</text></g><g><rect width="150" height="66" x="495" y="112" fill="#0d9488" rx="8"/><image width="32" height="22" x="503" y="120" href="assets/topology-icons/frr-router.svg" preserveAspectRatio="xMidYMid meet"/><text x="570" y="132" fill="#fff" font-size="11" font-weight="700" text-anchor="middle">ixp-content1</text><text x="570" y="148" fill="#ccfbf1" font-size="10" text-anchor="middle">CDN · AS 64500</text><text x="570" y="163" fill="#ccfbf1" font-size="10" text-anchor="middle">B/PC1 Docker</text></g><g><rect width="150" height="66" x="660" y="112" fill="#0d9488" rx="8"/><image width="32" height="22" x="668" y="120" href="assets/topology-icons/frr-router.svg" preserveAspectRatio="xMidYMid meet"/><text x="735" y="132" fill="#fff" font-size="11" font-weight="700" text-anchor="middle">ixp-eyeball1</text><text x="735" y="148" fill="#ccfbf1" font-size="10" text-anchor="middle">eyeball · AS 64501</text><text x="735" y="163" fill="#ccfbf1" font-size="10" text-anchor="middle">B/PC1 Docker</text></g><g><image width="150" height="96" x="100" y="350" href="assets/topology-photos/generated/adl-pe1-photo.jpg" preserveAspectRatio="xMidYMid slice"/><rect width="150" height="96" x="100" y="350" fill="none" stroke="#1ba0d7" stroke-width="2" rx="8"/></g><g><image width="150" height="96" x="315" y="392" href="assets/topology-photos/generated/gel-pe1-photo.jpg" preserveAspectRatio="xMidYMid slice"/><rect width="150" height="96" x="315" y="392" fill="none" stroke="#1ba0d7" stroke-width="2" rx="8"/></g><g><image width="150" height="96" x="530" y="350" href="assets/topology-photos/generated/mel-pe1-photo.jpg" preserveAspectRatio="xMidYMid slice"/><rect width="150" height="96" x="530" y="350" fill="none" stroke="#1ba0d7" stroke-width="2" rx="8"/></g><g><image width="120" height="92" x="760" y="360" href="assets/topology-photos/generated/mel-p-photo.jpg" preserveAspectRatio="xMidYMid slice"/><rect width="120" height="92" x="760" y="360" fill="none" stroke="#1ba0d7" stroke-width="2" rx="8"/></g><g><image width="180" height="96" x="920" y="350" href="assets/topology-photos/generated/syd-pe1-photo.jpg" preserveAspectRatio="xMidYMid slice"/><rect width="180" height="96" x="920" y="350" fill="none" stroke="#64748b" stroke-dasharray="6 4" stroke-width="2" rx="8"/></g><g><image width="150" height="80" x="530" y="566" href="assets/topology-photos/generated/northwind-ce-photo.jpg" preserveAspectRatio="xMidYMid slice"/><rect width="150" height="80" x="530" y="566" fill="none" stroke="#ee3124" stroke-width="2" rx="8"/></g><g><rect width="150" height="80" x="315" y="566" fill="#f97316" rx="8"/><image width="34" height="24" x="323" y="574" href="assets/topology-icons/aruba-switch.svg" preserveAspectRatio="xMidYMid meet"/><text x="390" y="588" fill="#fff" font-size="12" font-weight="700" text-anchor="middle">helix-lan-sw</text><text x="390" y="605" fill="#ffedd5" font-size="10" text-anchor="middle">Aruba CX 10.16</text><text x="390" y="620" fill="#ffedd5" font-size="10" text-anchor="middle">VLAN 100/200</text><text x="390" y="635" fill="#ffedd5" font-size="10" text-anchor="middle">local access practice</text></g><g><image width="150" height="80" x="100" y="566" href="assets/topology-photos/generated/spare-ce-photo.jpg" preserveAspectRatio="xMidYMid slice"/><rect width="150" height="80" x="100" y="566" fill="none" stroke="#42a5f5" stroke-width="2" rx="8"/></g><g fill="#713f12" font-size="10" text-anchor="middle"><rect width="120" height="40" x="475" y="752" fill="#fde047" rx="6"/><image width="24" height="18" x="480" y="758" href="assets/topology-icons/docker-workload.svg" preserveAspectRatio="xMidYMid meet"/><text x="545" y="770" font-weight="700">northwind-saas</text><text x="545" y="784">nginx</text><rect width="110" height="40" x="605" y="752" fill="#fde047" rx="6"/><image width="24" height="18" x="610" y="758" href="assets/topology-icons/docker-workload.svg" preserveAspectRatio="xMidYMid meet"/><text x="668" y="770" font-weight="700">northwind-redis</text><text x="668" y="784">+ prometheus/grafana</text><rect width="110" height="40" x="290" y="752" fill="#fde047" rx="6"/><image width="24" height="18" x="295" y="758" href="assets/topology-icons/docker-workload.svg" preserveAspectRatio="xMidYMid meet"/><text x="353" y="770" font-weight="700">helix-orthanc</text><text x="353" y="784">DICOM</text><rect width="110" height="40" x="410" y="752" fill="#fde047" rx="6"/><image width="24" height="18" x="415" y="758" href="assets/topology-icons/docker-workload.svg" preserveAspectRatio="xMidYMid meet"/><text x="473" y="770" font-weight="700">helix-emr</text><text x="473" y="784">nginx + doctor-wks</text></g><text x="560" y="826" fill="#854d0e" font-size="11">Workload containers are Region B/PC1 Docker offload; local Region A keeps router/firewall nodes and both transits.</text><g><rect width="260" height="78" x="1160" y="108" fill="#455a64" rx="8"/><image width="36" height="26" x="1170" y="118" href="assets/topology-icons/pc-management.svg" preserveAspectRatio="xMidYMid meet"/><text x="1290" y="130" fill="#fff" font-size="12" font-weight="700" text-anchor="middle">rpki-rp1 · Routinator (on PC1)</text><text x="1290" y="148" fill="#cfd8dc" font-size="10" text-anchor="middle">RPKI-RTR → 192.168.137.1:3323</text><text x="1290" y="164" fill="#cfd8dc" font-size="10" text-anchor="middle">SLURM lab VRPs (RFC 8416)</text><text x="1290" y="180" fill="#cfd8dc" font-size="10" text-anchor="middle">ROV first @ Region B SYD-PE1</text></g><g><rect width="260" height="58" x="1160" y="200" fill="#e2e8f0" stroke="#94a3b8" rx="8"/><image width="34" height="24" x="1378" y="214" href="assets/topology-icons/gns3-cloud.svg" preserveAspectRatio="xMidYMid meet"/><text x="1170" y="220" fill="#334155" font-size="11" font-weight="700">Mgmt segment</text><text x="1170" y="237" fill="#475569" font-size="10">nodes 10.255.191.11–17/24</text><text x="1170" y="251" fill="#475569" font-size="10">GNS3 ctrl 192.168.137.2:3080</text></g><text x="1160" y="274" fill="#475569" font-size="10">Dell/PC2 canvas: ADL → GEL → MEL-PE1 → MEL-P</text><text x="1160" y="288" fill="#475569" font-size="10">Transit-B is local backup via ADL-PE1; SYD stays ROV/Region B edge</text><text x="1160" y="310" fill="#334155" font-size="12" font-weight="700">Legend</text><g fill="#334155" font-size="11"><rect width="20" height="14" x="1160" y="320" fill="#1ba0d7" rx="3"/><text x="1188" y="332">Cisco IOS-XRv 6.1.3 (Region A P/PE)</text><rect width="20" height="14" x="1160" y="342" fill="#1565c0" rx="3"/><text x="1188" y="354">Region B IOS-XRv SYD-PE1</text><rect width="20" height="14" x="1160" y="364" fill="#42a5f5" rx="3"/><text x="1188" y="376">Cisco IOSv (spare CE)</text><rect width="20" height="14" x="1160" y="386" fill="#6a1b9a" rx="3"/><text x="1188" y="398">Cisco transit (CSR / IOL-XE)</text><rect width="20" height="14" x="1160" y="408" fill="#0d9488" rx="3"/><text x="1188" y="420">FRR IXP (Region B/PC1 Docker)</text><rect width="20" height="14" x="1160" y="430" fill="#ee3124" rx="3"/><text x="1188" y="442">Fortinet FortiGate (Northwind CE)</text><rect width="20" height="14" x="1160" y="452" fill="#f97316" rx="3"/><text x="1188" y="464">Aruba CX (Helix LAN)</text><rect width="20" height="14" x="1160" y="474" fill="#fde047" rx="3"/><text x="1188" y="486">Tenant workload (B/PC1 Docker)</text><rect width="20" height="14" x="1160" y="496" fill="#455a64" rx="3"/><text x="1188" y="508">Management / RPKI (PC1)</text></g><g fill="#334155" font-size="11"><line x1="1160" x2="1190" y1="532" y2="532" stroke="#64748b" stroke-width="2"/><text x="1196" y="536">link (IS-IS/LDP, eBGP)</text><line x1="1160" x2="1190" y1="552" y2="552" stroke="#1d4ed8" stroke-dasharray="5 4" stroke-width="1.6"/><text x="1196" y="556">iBGP VPNv4 (full mesh)</text><line x1="1160" x2="1190" y1="572" y2="572" stroke="#0d9488" stroke-dasharray="4 4" stroke-width="1.6"/><text x="1196" y="576">RPKI-RTR feed</text></g><g><rect width="260" height="120" x="1160" y="586" fill="#fef2f2" stroke="#fca5a5" rx="8"/><text x="1170" y="606" fill="#991b1b" font-size="11" font-weight="700">Archived (ADR-003)</text><text x="1170" y="624" fill="#7f1d1d" font-size="10">Nokia core retired: SR Linux P +</text><text x="1170" y="638" fill="#7f1d1d" font-size="10">SR OS PE-1/PE-2 → cold-stored,</text><text x="1170" y="652" fill="#7f1d1d" font-size="10">recoverable (license preserved).</text><text x="1170" y="672" fill="#7f1d1d" font-size="10">Juniper → Region B (vSRX/vJunos)</text><text x="1170" y="686" fill="#7f1d1d" font-size="10">+ cloud cRPD; vSRX standalone-</text><text x="1170" y="700" fill="#7f1d1d" font-size="10">local for practice.</text></g><text x="1160" y="736" fill="#64748b" font-size="10">Policy: IXP(300) &gt; Transit-A(200) &gt;</text><text x="1160" y="750" fill="#64748b" font-size="10">Transit-B(100); RPKI-invalid dropped;</text><text x="1160" y="764" fill="#64748b" font-size="10">no transit↔IXP leak; max-prefix cap.</text><text x="40" y="894" fill="#94a3b8" font-size="11">Source: docs/region-a-plan.md v2.5 · docs/adr-003-revendor-cisco-region-a.md · GNS3 project &quot;ops-lab&quot; on Dell (192.168.137.2:3080)</text></svg>