<svg xmlns="http://www.w3.org/2000/svg" width="1760" height="1000" viewBox="0 0 1760 1000"><rect width="1760" height="1000" x="0" y="0" fill="#fff" fill-opacity="1" stroke="none" stroke-width="1.5" rx="0" ry="0"/><rect width="1760" height="74" x="0" y="0" fill="#0d2b4e" fill-opacity="1" stroke="none" stroke-width="1.5" rx="0" ry="0"/><text x="34" y="33" fill="#fff" font-family="Helvetica" font-size="24" font-weight="bold" text-anchor="start">Aurora Region B · placement view — what runs in CML vs locally on PC1/Dell</text><text x="34" y="59" fill="#9db8d6" font-family="Helvetica" font-size="13.5" text-anchor="start">CML = Cisco native + ONE BYOI (vJunos). Non-Cisco CEs + IXP + RPKI run locally and reach the CML PEs over the PC1 openconnect bridge. Transits stay in Region A.</text><rect width="452" height="196" x="40" y="92" fill="#eef4fb" fill-opacity=".55" stroke="#9fb3cd" stroke-width="1.8" rx="14" ry="14"/><text x="56" y="116" fill="#0d2b4e" font-family="Helvetica" font-size="14" font-weight="bold" text-anchor="start">REGION A · local Dell GNS3 (Internet edge stays here)</text><rect width="452" height="600" x="40" y="312" fill="#eef4fb" fill-opacity=".55" stroke="#9fb3cd" stroke-width="1.8" rx="14" ry="14"/><text x="56" y="336" fill="#0d2b4e" font-family="Helvetica" font-size="14" font-weight="bold" text-anchor="start">PC1 / Dell · bridge · PC1 Docker · local non-Cisco CEs</text><rect width="660" height="648" x="560" y="92" fill="#eef4fb" fill-opacity=".55" stroke="#9fb3cd" stroke-width="1.8" rx="14" ry="14"/><text x="576" y="116" fill="#0d2b4e" font-family="Helvetica" font-size="14" font-weight="bold" text-anchor="start">REGION B · CML reservation (Cisco native + vJunos BYOI)</text><rect width="200" height="58" x="56" y="150" fill="#0d2b4e" fill-opacity="1" stroke="#fff" stroke-width="1" rx="9" ry="9"/><text x="156" y="173" fill="#fff" font-family="Helvetica" font-size="13.5" font-weight="bold" text-anchor="middle">MEL-PE1 edge (ASBR)</text><text x="156" y="191" fill="#fff" font-family="Helvetica" font-size="10" text-anchor="middle">AS 64496 · MEL-P = transport handoff</text><rect width="180" height="50" x="300" y="144" fill="#8e44ad" fill-opacity="1" stroke="#fff" stroke-width="1" rx="9" ry="9"/><text x="390" y="167" fill="#fff" font-family="Helvetica" font-size="13.5" font-weight="bold" text-anchor="middle">Transit-A · CSR1000v</text><text x="390" y="185" fill="#fff" font-family="Helvetica" font-size="10" text-anchor="middle">AS 64497 · primary</text><rect width="180" height="50" x="300" y="210" fill="#8e44ad" fill-opacity="1" stroke="#fff" stroke-width="1" rx="9" ry="9"/><text x="390" y="233" fill="#fff" font-family="Helvetica" font-size="13.5" font-weight="bold" text-anchor="middle">Transit-B · IOL-XE</text><text x="390" y="251" fill="#fff" font-family="Helvetica" font-size="10" text-anchor="middle">AS 64498 · backup</text><line x1="300" x2="256" y1="169" y2="179" stroke="#8e44ad" stroke-width="1.8"/><line x1="300" x2="256" y1="235" y2="187" stroke="#8e44ad" stroke-width="1.8"/><rect width="200" height="58" x="56" y="360" fill="#6a4ea3" fill-opacity="1" stroke="#fff" stroke-width="1" rx="9" ry="9"/><text x="156" y="383" fill="#fff" font-family="Helvetica" font-size="13.5" font-weight="bold" text-anchor="middle">openconnect bridge</text><text x="156" y="401" fill="#fff" font-family="Helvetica" font-size="10" text-anchor="middle">+ MASQUERADE (tun0)</text><rect width="200" height="48" x="56" y="440" fill="#455a64" fill-opacity="1" stroke="#fff" stroke-width="1" rx="9" ry="9"/><text x="156" y="463" fill="#fff" font-family="Helvetica" font-size="13.5" font-weight="bold" text-anchor="middle">Routinator (PC1 Docker)</text><text x="156" y="481" fill="#fff" font-family="Helvetica" font-size="10" text-anchor="middle">RTR :3323 · RPKI/ROV</text><rect width="200" height="56" x="56" y="508" fill="#0e8a7d" fill-opacity="1" stroke="#fff" stroke-width="1" rx="9" ry="9"/><text x="156" y="531" fill="#fff" font-family="Helvetica" font-size="13.5" font-weight="bold" text-anchor="middle">IXP FRR (PC1 Docker)</text><text x="156" y="549" fill="#fff" font-family="Helvetica" font-size="10" text-anchor="middle">RS/content/eyeball 64499-501</text><rect width="196" height="58" x="290" y="360" fill="#fa582d" fill-opacity="1" stroke="#fff" stroke-width="1" rx="9" ry="9"/><text x="388" y="383" fill="#fff" font-family="Helvetica" font-size="13.5" font-weight="bold" text-anchor="middle">HH-CE · PA-VM 9.0.4</text><text x="388" y="401" fill="#fff" font-family="Helvetica" font-size="10" text-anchor="middle">PC1 vrnetlab · AS 64521</text><rect width="196" height="58" x="290" y="440" fill="#159e74" fill-opacity="1" stroke="#fff" stroke-width="1" rx="9" ry="9"/><text x="388" y="463" fill="#fff" font-family="Helvetica" font-size="13.5" font-weight="bold" text-anchor="middle">JNX-FW · vSRX</text><text x="388" y="481" fill="#fff" font-family="Helvetica" font-size="10" text-anchor="middle">Dell standalone · AS 64522</text><rect width="196" height="58" x="290" y="520" fill="#ff9800" fill-opacity="1" stroke="#fff" stroke-width="1" rx="9" ry="9"/><text x="388" y="543" fill="#fff" font-family="Helvetica" font-size="13.5" font-weight="bold" text-anchor="middle">helix-lan-sw · Aruba CX</text><text x="388" y="561" fill="#fff" font-family="Helvetica" font-size="10" text-anchor="middle">local L2 · Helix LAN</text><text x="56" y="600" fill="#334155" font-family="Helvetica" font-size="11.5" text-anchor="start">Local CEs reach Region B PEs over the bridge (PE-CE eBGP) —</text><text x="56" y="618" fill="#334155" font-family="Helvetica" font-size="11.5" text-anchor="start">no per-reservation CML upload. Aruba is local L2 behind PA-VM (no GRE).</text><line x1="290" x2="256" y1="389" y2="389" stroke="#fa582d" stroke-width="1.8"/><line x1="290" x2="256" y1="469" y2="395" stroke="#159e74" stroke-width="1.8"/><line x1="290" x2="388" y1="549" y2="418" stroke="#ff9800" stroke-width="1.8"/><line x1="156" x2="156" y1="508" y2="418" stroke="#0e8a7d" stroke-width="1.6"/><line x1="156" x2="162" y1="440" y2="418" stroke="#455a64" stroke-width="1.6"/><rect width="150" height="56" x="720" y="140" fill="#1565c0" fill-opacity="1" stroke="#f0b429" stroke-width="3" rx="9" ry="9"/><text x="795" y="163" fill="#fff" font-family="Helvetica" font-size="13.5" font-weight="bold" text-anchor="middle">DC-P-R1</text><text x="795" y="181" fill="#fff" font-family="Helvetica" font-size="10" text-anchor="middle">IOS XR · RR / ASBR</text><rect width="150" height="56" x="950" y="140" fill="#1565c0" fill-opacity="1" stroke="#f0b429" stroke-width="3" rx="9" ry="9"/><text x="1025" y="163" fill="#fff" font-family="Helvetica" font-size="13.5" font-weight="bold" text-anchor="middle">DC-P-R2</text><text x="1025" y="181" fill="#fff" font-family="Helvetica" font-size="10" text-anchor="middle">IOS XR · RR</text><rect width="150" height="56" x="575" y="235" fill="#159e74" fill-opacity="1" stroke="#f0b429" stroke-dasharray="5 4" stroke-width="3" rx="9" ry="9"/><text x="650" y="258" fill="#fff" font-family="Helvetica" font-size="13.5" font-weight="bold" text-anchor="middle">JNX-P</text><text x="650" y="276" fill="#fff" font-family="Helvetica" font-size="10" text-anchor="middle">vJunos-router · BYOI</text><rect width="150" height="56" x="700" y="335" fill="#1565c0" fill-opacity="1" stroke="#fff" stroke-width="1" rx="9" ry="9"/><text x="775" y="358" fill="#fff" font-family="Helvetica" font-size="13.5" font-weight="bold" text-anchor="middle">MR-PE-R1</text><text x="775" y="376" fill="#fff" font-family="Helvetica" font-size="10" text-anchor="middle">IOS XR · PE</text><rect width="150" height="56" x="700" y="425" fill="#4f8fe0" fill-opacity="1" stroke="#fff" stroke-width="1" rx="9" ry="9"/><text x="775" y="448" fill="#07203a" font-family="Helvetica" font-size="13.5" font-weight="bold" text-anchor="middle">MR-PE-R2</text><text x="775" y="466" fill="#07203a" font-family="Helvetica" font-size="10" text-anchor="middle">Cat8000v XE · PE</text><rect width="150" height="56" x="575" y="530" fill="#4f8fe0" fill-opacity="1" stroke="#fff" stroke-width="1" rx="9" ry="9"/><text x="650" y="553" fill="#07203a" font-family="Helvetica" font-size="13.5" font-weight="bold" text-anchor="middle">MR-CE</text><text x="650" y="571" fill="#07203a" font-family="Helvetica" font-size="10" text-anchor="middle">Cat8000v · CE+ZBFW</text><rect width="150" height="56" x="1010" y="335" fill="#1565c0" fill-opacity="1" stroke="#fff" stroke-width="1" rx="9" ry="9"/><text x="1085" y="358" fill="#fff" font-family="Helvetica" font-size="13.5" font-weight="bold" text-anchor="middle">HH-PE-R1</text><text x="1085" y="376" fill="#fff" font-family="Helvetica" font-size="10" text-anchor="middle">IOS XR · PE</text><rect width="150" height="56" x="1010" y="425" fill="#1565c0" fill-opacity="1" stroke="#fff" stroke-width="1" rx="9" ry="9"/><text x="1085" y="448" fill="#fff" font-family="Helvetica" font-size="13.5" font-weight="bold" text-anchor="middle">HH-PE-R2</text><text x="1085" y="466" fill="#fff" font-family="Helvetica" font-size="10" text-anchor="middle">IOS XR · PE</text><text x="575" y="690" fill="#334155" font-family="Helvetica" font-size="11.5" font-style="italic" text-anchor="start">8 Cisco nodes (native) + JNX-P (vJunos, the one BYOI). HH-CE / vSRX / Aruba are bridged in.</text><line x1="795" x2="1025" y1="168" y2="168" stroke="#5b6b7d" stroke-width="1.6"/><line x1="795" x2="650" y1="168" y2="263" stroke="#5b6b7d" stroke-width="1.6"/><line x1="1025" x2="650" y1="168" y2="263" stroke="#5b6b7d" stroke-width="1.6"/><line x1="795" x2="775" y1="168" y2="363" stroke="#5b6b7d" stroke-width="1.6"/><line x1="1025" x2="775" y1="168" y2="453" stroke="#5b6b7d" stroke-width="1.6"/><line x1="795" x2="1085" y1="168" y2="363" stroke="#5b6b7d" stroke-width="1.6"/><line x1="1025" x2="1085" y1="168" y2="453" stroke="#5b6b7d" stroke-width="1.6"/><line x1="775" x2="775" y1="363" y2="453" stroke="#5b6b7d" stroke-width="1.6"/><line x1="1085" x2="1085" y1="363" y2="453" stroke="#5b6b7d" stroke-width="1.6"/><line x1="775" x2="650" y1="363" y2="558" stroke="#5b6b7d" stroke-width="1.6"/><line x1="775" x2="650" y1="453" y2="558" stroke="#5b6b7d" stroke-width="1.6"/><polyline fill="none" stroke="#6a4ea3" stroke-dasharray="8 5" stroke-width="2.6" points="256 179 520 179 660 168 720 168"/><text x="548" y="150" fill="#6a4ea3" font-family="Helvetica" font-size="11.5" font-weight="bold" text-anchor="start">eBGP 64496 &lt;-&gt; 65002</text><polyline fill="none" stroke="#fa582d" stroke-dasharray="8 5" stroke-width="2.4" points="256 389 520 389 700 470 1010 453"/><polyline fill="none" stroke="#fa582d" stroke-dasharray="2 5" stroke-width="2" points="256 379 540 360 720 363 1010 363"/><text x="560" y="470" fill="#fa582d" font-family="Helvetica" font-size="11.5" font-weight="bold" text-anchor="start">PE-CE eBGP (Helix) via bridge</text><polyline fill="none" stroke="#455a64" stroke-dasharray="3 5" stroke-width="2" points="256 464 530 464 690 250 795 196"/><text x="560" y="250" fill="#455a64" font-family="Helvetica" font-size="11" font-weight="bold" text-anchor="start">RPKI-RTR -&gt; ROV (SYD)</text><rect width="484" height="186" x="1240" y="92" fill="#f4f7fb" fill-opacity="1" stroke="#c3d0e0" stroke-width="1.4" rx="10" ry="10"/><rect width="484" height="26" x="1240" y="92" fill="#0d2b4e" fill-opacity="1" stroke="none" stroke-width="0" rx="10" ry="10"/><rect width="484" height="13" x="1240" y="105" fill="#0d2b4e" fill-opacity="1" stroke="none" stroke-width="0" rx="0" ry="0"/><text x="1254" y="110" fill="#fff" font-family="Helvetica" font-size="12.5" font-weight="bold" text-anchor="start">ADDRESSING (disjoint from Region A)</text><text x="1253" y="138" fill="#334155" font-family="Helvetica" font-size="12" font-weight="bold" text-anchor="start">Carrier loopbacks</text><text x="1405" y="138" fill="#0d2b4e" font-family="Helvetica" font-size="12" text-anchor="start">10.0.20.0/24</text><text x="1253" y="159" fill="#334155" font-family="Helvetica" font-size="12" font-weight="bold" text-anchor="start">CE loopbacks</text><text x="1405" y="159" fill="#0d2b4e" font-family="Helvetica" font-size="12" text-anchor="start">10.0.21.0/24</text><text x="1253" y="180" fill="#334155" font-family="Helvetica" font-size="12" font-weight="bold" text-anchor="start">Backbone /31s</text><text x="1405" y="180" fill="#0d2b4e" font-family="Helvetica" font-size="12" text-anchor="start">10.255.20.0/24</text><text x="1253" y="201" fill="#334155" font-family="Helvetica" font-size="12" font-weight="bold" text-anchor="start">PE-CE /30s</text><text x="1405" y="201" fill="#0d2b4e" font-family="Helvetica" font-size="12" text-anchor="start">10.255.21.0/24</text><text x="1253" y="222" fill="#334155" font-family="Helvetica" font-size="12" font-weight="bold" text-anchor="start">IS-IS</text><text x="1405" y="222" fill="#0d2b4e" font-family="Helvetica" font-size="12" text-anchor="start">L2-only · area 49.0002 · wide</text><text x="1253" y="243" fill="#334155" font-family="Helvetica" font-size="12" font-weight="bold" text-anchor="start">MPLS</text><text x="1405" y="243" fill="#0d2b4e" font-family="Helvetica" font-size="12" text-anchor="start">LDP on all core /31s</text><rect width="484" height="140" x="1240" y="290" fill="#f4f7fb" fill-opacity="1" stroke="#c3d0e0" stroke-width="1.4" rx="10" ry="10"/><rect width="484" height="26" x="1240" y="290" fill="#0d2b4e" fill-opacity="1" stroke="none" stroke-width="0" rx="10" ry="10"/><rect width="484" height="13" x="1240" y="303" fill="#0d2b4e" fill-opacity="1" stroke="none" stroke-width="0" rx="0" ry="0"/><text x="1254" y="308" fill="#fff" font-family="Helvetica" font-size="12.5" font-weight="bold" text-anchor="start">BGP / AS</text><text x="1253" y="336" fill="#334155" font-family="Helvetica" font-size="12" font-weight="bold" text-anchor="start">Region B AS</text><text x="1405" y="336" fill="#0d2b4e" font-family="Helvetica" font-size="12" text-anchor="start">65002 (confed id 64496)</text><text x="1253" y="357" fill="#334155" font-family="Helvetica" font-size="12" font-weight="bold" text-anchor="start">RR cluster</text><text x="1405" y="357" fill="#0d2b4e" font-family="Helvetica" font-size="12" text-anchor="start">DC-P-R1 + DC-P-R2</text><text x="1253" y="378" fill="#334155" font-family="Helvetica" font-size="12" font-weight="bold" text-anchor="start">Inter-region</text><text x="1405" y="378" fill="#0d2b4e" font-family="Helvetica" font-size="12" text-anchor="start">eBGP 64496 &lt;-&gt; 65002</text><text x="1253" y="399" fill="#334155" font-family="Helvetica" font-size="12" font-weight="bold" text-anchor="start">Customer AS</text><text x="1405" y="399" fill="#0d2b4e" font-family="Helvetica" font-size="12" text-anchor="start">MR 64520 · HH 64521 · SRX 64522</text><rect width="484" height="96" x="1240" y="442" fill="#f4f7fb" fill-opacity="1" stroke="#c3d0e0" stroke-width="1.4" rx="10" ry="10"/><rect width="484" height="26" x="1240" y="442" fill="#0d2b4e" fill-opacity="1" stroke="none" stroke-width="0" rx="10" ry="10"/><rect width="484" height="13" x="1240" y="455" fill="#0d2b4e" fill-opacity="1" stroke="none" stroke-width="0" rx="0" ry="0"/><text x="1254" y="460" fill="#fff" font-family="Helvetica" font-size="12.5" font-weight="bold" text-anchor="start">VRF / RD-RT (shared carrier space)</text><text x="1253" y="488" fill="#334155" font-family="Helvetica" font-size="12" font-weight="bold" text-anchor="start">Maple Ridge</text><text x="1405" y="488" fill="#0d2b4e" font-family="Helvetica" font-size="12" text-anchor="start">id 1 · RD/RT 64496:1</text><text x="1253" y="509" fill="#334155" font-family="Helvetica" font-size="12" font-weight="bold" text-anchor="start">Helix Health</text><text x="1405" y="509" fill="#0d2b4e" font-family="Helvetica" font-size="12" text-anchor="start">id 2 · RD/RT 64496:2</text><rect width="484" height="214" x="1240" y="550" fill="#f4f7fb" fill-opacity="1" stroke="#c3d0e0" stroke-width="1.4" rx="10" ry="10"/><rect width="484" height="26" x="1240" y="550" fill="#0d2b4e" fill-opacity="1" stroke="none" stroke-width="0" rx="10" ry="10"/><rect width="484" height="13" x="1240" y="563" fill="#0d2b4e" fill-opacity="1" stroke="none" stroke-width="0" rx="0" ry="0"/><text x="1254" y="568" fill="#fff" font-family="Helvetica" font-size="12.5" font-weight="bold" text-anchor="start">WHERE THINGS RUN (the holistic answer)</text><text x="1253" y="596" fill="#334155" font-family="Helvetica" font-size="12" font-weight="bold" text-anchor="start">CML (Cisco)</text><text x="1405" y="596" fill="#0d2b4e" font-family="Helvetica" font-size="12" text-anchor="start">DC-P x2, MR/HH PE pairs, MR-CE</text><text x="1253" y="617" fill="#334155" font-family="Helvetica" font-size="12" font-weight="bold" text-anchor="start">CML (BYOI)</text><text x="1405" y="617" fill="#0d2b4e" font-family="Helvetica" font-size="12" text-anchor="start">JNX-P vJunos — the ONLY upload</text><text x="1253" y="638" fill="#334155" font-family="Helvetica" font-size="12" font-weight="bold" text-anchor="start">PC1 vrnetlab</text><text x="1405" y="638" fill="#0d2b4e" font-family="Helvetica" font-size="12" text-anchor="start">HH-CE PA-VM 9.0.4 (bridged)</text><text x="1253" y="659" fill="#334155" font-family="Helvetica" font-size="12" font-weight="bold" text-anchor="start">Dell</text><text x="1405" y="659" fill="#0d2b4e" font-family="Helvetica" font-size="12" text-anchor="start">JNX-FW vSRX standalone (bridged)</text><text x="1253" y="680" fill="#334155" font-family="Helvetica" font-size="12" font-weight="bold" text-anchor="start">PC1 local</text><text x="1405" y="680" fill="#0d2b4e" font-family="Helvetica" font-size="12" text-anchor="start">Aruba CX Helix LAN</text><text x="1253" y="701" fill="#334155" font-family="Helvetica" font-size="12" font-weight="bold" text-anchor="start">Region A</text><text x="1405" y="701" fill="#0d2b4e" font-family="Helvetica" font-size="12" text-anchor="start">Transit-A/B (NOT Region B)</text><text x="1253" y="722" fill="#334155" font-family="Helvetica" font-size="12" font-weight="bold" text-anchor="start">PC1 Docker</text><text x="1405" y="722" fill="#0d2b4e" font-family="Helvetica" font-size="12" text-anchor="start">IXP FRR peers + Routinator</text><rect width="484" height="140" x="1240" y="776" fill="#f4f7fb" fill-opacity="1" stroke="#c3d0e0" stroke-width="1.4" rx="10" ry="10"/><rect width="484" height="26" x="1240" y="776" fill="#0d2b4e" fill-opacity="1" stroke="none" stroke-width="0" rx="10" ry="10"/><rect width="484" height="13" x="1240" y="789" fill="#0d2b4e" fill-opacity="1" stroke="none" stroke-width="0" rx="0" ry="0"/><text x="1254" y="794" fill="#fff" font-family="Helvetica" font-size="12.5" font-weight="bold" text-anchor="start">BUILD STATE (2026-06-23)</text><text x="1253" y="822" fill="#334155" font-family="Helvetica" font-size="12" font-weight="bold" text-anchor="start">[x]</text><text x="1405" y="822" fill="#0d2b4e" font-family="Helvetica" font-size="12" text-anchor="start">config-as-code ops/region-b-cml/</text><text x="1253" y="843" fill="#334155" font-family="Helvetica" font-size="12" font-weight="bold" text-anchor="start">[x]</text><text x="1405" y="843" fill="#0d2b4e" font-family="Helvetica" font-size="12" text-anchor="start">holistic placement corrected</text><text x="1253" y="864" fill="#334155" font-family="Helvetica" font-size="12" font-weight="bold" text-anchor="start">[ ]</text><text x="1405" y="864" fill="#0d2b4e" font-family="Helvetica" font-size="12" text-anchor="start">reserve CML + openconnect bridge</text><text x="1253" y="885" fill="#334155" font-family="Helvetica" font-size="12" font-weight="bold" text-anchor="start">[ ]</text><text x="1405" y="885" fill="#0d2b4e" font-family="Helvetica" font-size="12" text-anchor="start">boot core -&gt; verify -&gt; bridge CEs</text><text x="56" y="770" fill="#0d2b4e" font-family="Helvetica" font-size="13" font-weight="bold" text-anchor="start">PLATFORM</text><rect width="22" height="15" x="150" y="757" fill="#1565c0" fill-opacity="1" stroke="#cbd5e1" stroke-width="1" rx="4" ry="4"/><text x="178" y="770" fill="#0d2b4e" font-family="Helvetica" font-size="11.5" text-anchor="start">IOS XR</text><rect width="22" height="15" x="236" y="757" fill="#4f8fe0" fill-opacity="1" stroke="#cbd5e1" stroke-width="1" rx="4" ry="4"/><text x="264" y="770" fill="#0d2b4e" font-family="Helvetica" font-size="11.5" text-anchor="start">Cat8000v XE</text><rect width="22" height="15" x="357" y="757" fill="#fa582d" fill-opacity="1" stroke="#cbd5e1" stroke-width="1" rx="4" ry="4"/><text x="385" y="770" fill="#0d2b4e" font-family="Helvetica" font-size="11.5" text-anchor="start">PA-VM</text><rect width="22" height="15" x="436" y="757" fill="#159e74" fill-opacity="1" stroke="#cbd5e1" stroke-width="1" rx="4" ry="4"/><text x="464" y="770" fill="#0d2b4e" font-family="Helvetica" font-size="11.5" text-anchor="start">Juniper</text><rect width="22" height="15" x="529" y="757" fill="#ff9800" fill-opacity="1" stroke="#cbd5e1" stroke-width="1" rx="4" ry="4"/><text x="557" y="770" fill="#0d2b4e" font-family="Helvetica" font-size="11.5" text-anchor="start">Aruba</text><rect width="22" height="15" x="608" y="757" fill="#8e44ad" fill-opacity="1" stroke="#cbd5e1" stroke-width="1" rx="4" ry="4"/><text x="636" y="770" fill="#0d2b4e" font-family="Helvetica" font-size="11.5" text-anchor="start">transit</text><rect width="22" height="15" x="701" y="757" fill="#0e8a7d" fill-opacity="1" stroke="#cbd5e1" stroke-width="1" rx="4" ry="4"/><text x="729" y="770" fill="#0d2b4e" font-family="Helvetica" font-size="11.5" text-anchor="start">IXP FRR</text><rect width="22" height="15" x="794" y="757" fill="#6a4ea3" fill-opacity="1" stroke="#cbd5e1" stroke-width="1" rx="4" ry="4"/><text x="822" y="770" fill="#0d2b4e" font-family="Helvetica" font-size="11.5" text-anchor="start">bridge</text><text x="56" y="796" fill="#64748b" font-family="Helvetica" font-size="11.5" text-anchor="start">Dashed = control-plane over the bridge · gold dashed border = BYOI · gold solid border = route-reflector</text><text x="56" y="818" fill="#334155" font-family="Helvetica" font-size="11.5" text-anchor="start">Only vJunos is a per-reservation CML upload (it can&apos;t boot on the triple-nested Dell). Everything else non-Cisco runs locally and bridges in.</text><text x="34" y="984" fill="#64748b" font-family="Helvetica" font-size="11.5" text-anchor="start">aurora-comms · ops/region-b-cml/ (topology · addressing · MOP) · ADR-002 §3.2/§3.2.4 · ADR-003 §2.3 · PROPOSED — ratify before deploy</text></svg>